<svg width="60" height="58" viewBox="0 0 60 58" fill="none" xmlns="http://www.w3.org/2000/svg">
<path d="M2.72745 42.272V16.3635H49.0905V29.9996H51.8179V4.09111C51.8179 3.72927 51.6741 3.38285 51.4184 3.1266C51.1627 2.87092 50.8157 2.72766 50.4545 2.72766H45.0001L44.9996 5.45453H49.0905V13.6363H2.72745V5.45453H6.81834V2.72766H1.36401C0.61067 2.72766 0 3.33776 0 4.0911V42.2723C0 44.0809 0.718537 45.8147 1.99694 47.0937C3.27592 48.3721 5.01033 49.0907 6.81836 49.0907H32.7269V46.3632H6.81836C5.73342 46.3632 4.69299 45.9323 3.92536 45.1653C3.15832 44.3982 2.72743 43.3573 2.72743 42.2723L2.72745 42.272Z" fill="#1890FF"/>
<path d="M12.2725 2.72766H14.9999V5.45512H12.2725V2.72766Z" fill="#1890FF"/>
<path d="M20.4541 2.72766H31.3634V5.45512H20.4541V2.72766Z" fill="#1890FF"/>
<path d="M36.8179 2.72766H39.5453V5.45512H36.8179V2.72766Z" fill="#1890FF"/>
<path d="M9.54612 8.18181C9.90739 8.18181 10.2544 8.03799 10.5101 7.7823C10.7657 7.52662 10.9096 7.17962 10.9096 6.81835V1.36344C10.9096 0.610669 10.2989 0 9.54614 0C8.7928 0 8.18213 0.610669 8.18213 1.36344V6.81835C8.18213 7.17962 8.32595 7.52662 8.58164 7.7823C8.83732 8.03798 9.18431 8.18181 9.54615 8.18181H9.54612Z" fill="#1890FF"/>
<path d="M17.7283 8.18181C18.0895 8.18181 18.4365 8.03799 18.6922 7.7823C18.9479 7.52662 19.0917 7.17962 19.0917 6.81835V1.36344C19.0917 0.610669 18.481 0 17.7283 0C16.9749 0 16.3643 0.610669 16.3643 1.36344V6.81835C16.3643 7.17962 16.5081 7.52662 16.7638 7.7823C17.0194 8.03798 17.3664 8.18181 17.7283 8.18181H17.7283Z" fill="#1890FF"/>
<path d="M34.0915 8.18181C34.4528 8.18181 34.7998 8.03799 35.0555 7.7823C35.3112 7.52662 35.455 7.17962 35.455 6.81835V1.36344C35.455 0.610669 34.8443 0 34.0915 0C33.3382 0 32.7275 0.610669 32.7275 1.36344V6.81835C32.7275 7.17962 32.8714 7.52662 33.127 7.7823C33.3827 8.03798 33.7297 8.18181 34.0916 8.18181H34.0915Z" fill="#1890FF"/>
<path d="M42.2732 8.18181C42.6344 8.18181 42.9814 8.03799 43.2371 7.7823C43.4928 7.52662 43.6366 7.17962 43.6366 6.81835V1.36344C43.6366 0.610669 43.026 0 42.2732 0C41.5198 0 40.9092 0.610669 40.9092 1.36344V6.81835C40.9092 7.17962 41.053 7.52662 41.3087 7.7823C41.5644 8.03798 41.9114 8.18181 42.2732 8.18181H42.2732Z" fill="#1890FF"/>
<path d="M10.9092 21.8176H16.3635V27.272H10.9092V21.8176Z" fill="#1890FF"/>
<path d="M19.0908 21.8176H24.5452V27.272H19.0908V21.8176Z" fill="#1890FF"/>
<path d="M27.2729 21.8176H32.7273V27.272H27.2729V21.8176Z" fill="#1890FF"/>
<path d="M35.4546 21.8176H40.9089V27.272H35.4546V21.8176Z" fill="#1890FF"/>
<path d="M19.0908 29.9994H24.5452V35.4537H19.0908V29.9994Z" fill="#1890FF"/>
<path d="M27.2729 29.9994H32.7273V35.4537H27.2729V29.9994Z" fill="#1890FF"/>
<path d="M10.9092 29.9994H16.3635V35.4537H10.9092V29.9994Z" fill="#1890FF"/>
<path d="M47.7273 32.7273C44.4725 32.7273 41.3506 34.0205 39.049 36.3217C36.7479 38.6234 35.4546 41.7452 35.4546 45C35.4546 48.2547 36.7478 51.3767 39.049 53.6782C41.3507 55.9794 44.4725 57.2727 47.7273 57.2727C50.982 57.2727 54.104 55.9794 56.4055 53.6782C58.7067 51.3765 60 48.2547 60 45C59.9926 41.7474 58.6976 38.6296 56.3976 36.3296C54.0977 34.0297 50.9798 32.7347 47.7273 32.7273V32.7273ZM47.7273 54.5449C45.1956 54.5449 42.7678 53.5393 40.9774 51.7495C39.1877 49.9592 38.182 47.5314 38.182 44.9997C38.182 42.468 39.1876 40.0402 40.9774 38.2499C42.7678 36.4601 45.1956 35.4545 47.7273 35.4545C50.259 35.4545 52.6868 36.4601 54.4771 38.2499C56.2669 40.0402 57.2725 42.468 57.2725 44.9997C57.2725 47.5314 56.2669 49.9592 54.4771 51.7495C52.6868 53.5393 50.259 54.5449 47.7273 54.5449V54.5449Z" fill="#1890FF"/>
<path d="M46.3643 38.1813H49.0917V46.3631H46.3643V38.1813Z" fill="#1890FF"/>
<path d="M46.3643 43.6368H54.546V46.3643H46.3643V43.6368Z" fill="#1890FF"/>
</svg>
